<svg width="64" height="64" viewBox="0 0 64 64" fill="none" xmlns="http://www.w3.org/2000/svg" role="img" aria-label="Skyline Exterior Cleaning emblem">
  <rect width="64" height="64" rx="14" fill="#0A1B33"/>
  <!-- city skyline -->
  <g fill="#3D8BF2">
    <rect x="12" y="38" width="7" height="14" rx="1"/>
    <rect x="21" y="30" width="8" height="22" rx="1"/>
    <rect x="31" y="34" width="7" height="18" rx="1"/>
    <rect x="40" y="26" width="9" height="26" rx="1"/>
    <rect x="51" y="36" width="6" height="16" rx="1"/>
  </g>
  <g fill="#1E6BE0">
    <rect x="23" y="34" width="2" height="2"/>
    <rect x="42" y="30" width="2" height="2"/>
    <rect x="42" y="36" width="2" height="2"/>
  </g>
  <!-- drone -->
  <g stroke="#FFFFFF" stroke-width="2" stroke-linecap="round">
    <line x1="22" y1="16" x2="42" y2="16"/>
    <line x1="24" y1="13" x2="28" y2="13"/>
    <line x1="36" y1="13" x2="40" y2="13"/>
  </g>
  <rect x="29" y="15" width="6" height="4" rx="1.5" fill="#FFFFFF"/>
  <line x1="32" y1="19" x2="32" y2="23" stroke="#3D8BF2" stroke-width="2" stroke-linecap="round"/>
</svg>
